<?xml version="1.0" encoding="UTF-8"?>
<!DOCTYPE svg PUBLIC "-//W3C//DTD SVG 1.1//EN" "http://www.w3.org/Graphics/SVG/1.1/DTD/svg11.dtd">
<!-- Creator: CorelDRAW -->
<svg xmlns="http://www.w3.org/2000/svg" xml:space="preserve" width="81px" height="100px" version="1.1" style="shape-rendering:geometricPrecision; text-rendering:geometricPrecision; image-rendering:optimizeQuality; fill-rule:evenodd; clip-rule:evenodd"
viewBox="0 0 81 100"
 xmlns:xlink="http://www.w3.org/1999/xlink"
 xmlns:xodm="http://www.corel.com/coreldraw/odm/2003">
 <defs>
  <style type="text/css">
   <![CDATA[
    .fil0 {fill:none}
    .fil1 {fill:#2B2A29}
    .fil2 {fill:black}
    .fil4 {fill:black}
    .fil3 {fill:#EB4411}
   ]]>
  </style>
 </defs>
 <g id="Layer_x0020_1">
  <metadata id="CorelCorpID_0Corel-Layer"/>
  <polygon class="fil0" points="-0.5,0 80.5,0 80.5,100 -0.5,100 "/>
  <path class="fil1" d="M22.86 0c-0.25,0.13 -0.49,0.14 -0.74,0 0.25,0 0.49,0 0.74,0z"/>
  <g id="_1806155009824">
   <path class="fil2" d="M6.04 56.58c1.65,-2.18 3.5,-4.11 5.91,-5.46 2.18,-1.23 4.53,-1.94 6.98,-2.34 2.26,-0.36 4.53,-0.64 6.79,-1 1.33,-0.21 2.62,-0.58 3.82,-1.22 1.93,-1.05 3.04,-2.72 3.58,-4.8 0.71,-2.68 0.75,-5.37 -0.12,-8.03 -0.79,-2.38 -2.6,-3.66 -4.95,-4.22 -2.47,-0.6 -4.97,-0.66 -7.49,-0.55 -2.04,0.09 -4.08,0.24 -6.13,0.13 -1.66,-0.08 -3.11,-0.56 -4.35,-1.75 -2.08,-2.01 -4.02,-4.14 -5.94,-6.29 -0.95,-1.06 -1.89,-2.13 -2.87,-3.25 1.08,-0.14 2.12,-0.19 3.15,-0.24 5.42,-0.27 10.84,-0.29 16.27,-0.08 4.03,0.15 8.05,0.4 12.04,1.12 5.5,0.99 9.05,4.25 10.8,9.47 1.38,4.12 1.88,8.37 1.62,12.7 -0.19,3.28 -0.8,6.47 -2.16,9.48 -1.91,4.2 -5.11,6.76 -9.67,7.59 -2.11,0.39 -4.24,0.54 -6.37,0.74 -3.47,0.33 -6.93,0.75 -10.22,1.99 -3.68,1.39 -6.4,3.88 -8.32,7.26 -2.41,4.23 -3.97,8.77 -4.62,13.61 -0.33,2.43 -0.18,4.87 0.1,7.31 0.21,1.74 0.42,3.48 0.63,5.22 -0.09,0.02 -0.11,-0.04 -0.13,-0.09 -1.75,-3.59 -3.27,-7.26 -4.11,-11.19 -1.98,-9.24 -0.22,-18.19 5.76,-26.11z"/>
   <path class="fil2" d="M22.88 0c0.14,0.16 0.33,0.08 0.49,0.11 1.3,0.27 2.32,0.95 3.14,1.98 1.91,2.39 2.1,6.07 0.35,8.35 -1.46,1.91 -3.48,2.73 -5.83,2.37 -2.41,-0.37 -3.83,-2.01 -4.56,-4.24 -1.32,-4.03 1.06,-7.84 5.26,-8.49 0.07,-0.01 0.14,0.01 0.17,-0.08 0.05,0 0.1,0 0.16,0 0.25,0.07 0.49,0.07 0.74,0 0.03,0 0.06,0 0.08,0z"/>
   <path class="fil3" d="M38.08 17.76c0.99,-0.16 1.94,-0.22 2.9,-0.28 3.2,-0.19 6.42,-0.25 9.63,-0.23 3.36,0.03 6.72,0.1 10.08,0.32 3.27,0.21 6.53,0.53 9.77,1.09 3.96,0.69 6.47,3.07 8.1,6.57 1.1,2.36 1.6,4.86 1.79,7.44 0.18,2.41 0.05,4.8 -0.64,7.13 -0.77,2.65 -2.18,4.96 -3.83,7.14 -0.55,0.72 -1.1,1.44 -1.66,2.15 -0.19,0.24 -0.17,0.37 0.03,0.58 0.86,0.86 1.74,1.68 2.52,2.61 1.92,2.31 3.04,4.98 3.46,7.93 0.57,3.98 0.24,7.92 -0.99,11.75 -1.42,4.46 -4.56,7.14 -8.97,8.45 -1.9,0.57 -3.84,0.82 -5.79,0.99 -4.84,0.4 -9.69,0.38 -14.53,0.31 -4.42,-0.07 -8.84,-0.2 -13.26,-0.34 -2.72,-0.08 -5.43,-0.13 -8.15,-0.19 -0.14,0 -0.27,0 -0.48,0 0.38,-0.83 0.84,-1.54 1.32,-2.24 1.03,-1.51 2.29,-2.84 3.39,-4.3 0.76,-1.02 1.43,-2.11 2.24,-3.1 0.72,-0.89 1.64,-1.31 2.75,-1.34 2.46,-0.05 4.92,0.05 7.37,0.13 0.92,0.03 1.84,0.06 2.76,0.09 3.21,0.09 6.42,0.16 9.64,0.1 1.7,-0.04 3.4,-0.13 5.08,-0.39 2.78,-0.43 4.63,-2.02 5.54,-4.63 0.96,-2.76 0.72,-5.44 -1.05,-7.86 -1.15,-1.58 -2.8,-2.31 -4.69,-2.6 -2.91,-0.47 -5.85,-0.5 -8.79,-0.51 -3.36,-0.01 -6.72,0.13 -10.08,0.17 -0.48,0.01 -0.48,0.01 -0.33,-0.45 0.58,-1.76 1.4,-3.43 2.08,-5.15 0.59,-1.54 1.09,-3.1 1.43,-4.72 0.09,-0.45 0.28,-0.54 0.7,-0.55 3.01,-0.05 6.01,0.16 9.02,0.19 2.09,0.02 4.17,0.02 6.22,-0.44 1.4,-0.32 2.7,-0.84 3.74,-1.87 0.99,-0.98 1.49,-2.2 1.72,-3.54 0.24,-1.46 0.25,-2.92 -0.07,-4.37 -0.54,-2.49 -2.16,-3.96 -4.52,-4.72 -1.57,-0.5 -3.19,-0.67 -4.82,-0.72 -2.63,-0.09 -5.25,0.03 -7.87,0.11 -1.48,0.05 -2.96,0.02 -4.45,0.03 -0.22,0.01 -0.34,-0.09 -0.46,-0.26 -0.52,-0.77 -1.01,-1.55 -1.31,-2.42 -1.08,-3.16 -3.18,-5.5 -5.81,-7.45 -0.22,-0.16 -0.44,-0.33 -0.65,-0.49 -0.02,-0.02 -0.03,-0.05 -0.08,-0.12z"/>
  </g>
  <g id="_1806155010304">
   <path class="fil4" d="M26.61 93.28c0,-1.81 0,-3.61 0,-5.42 0,-0.74 0.25,-1.03 0.97,-1.02 2.23,0.01 4.46,-0.11 6.69,0.1 1.08,0.1 2.13,0.34 3.13,0.77 2.5,1.07 3.74,3.29 3.51,6.07 -0.29,3.45 -2.49,5.03 -5.31,5.64 -1.11,0.24 -2.24,0.34 -3.38,0.34 -1.49,0.01 -2.98,0 -4.48,0.01 -0.72,0 -1.16,-0.19 -1.14,-1.15 0.04,-1.78 0.01,-3.56 0.01,-5.34zm3.48 4.1l0 0c0,0.22 0.03,0.32 0.29,0.31 0.95,-0.02 1.91,0.01 2.87,-0.07 2.45,-0.23 3.81,-1.56 4.04,-3.99 0.22,-2.39 -1.1,-4.12 -3.45,-4.57 -1.12,-0.22 -2.26,-0.13 -3.39,-0.17 -0.29,-0.01 -0.37,0.07 -0.36,0.36 0.01,1.34 0,2.68 0,4.03 0,1.36 0.01,2.73 0,4.1z"/>
   <path class="fil4" d="M57.22 93.29c0,-1.79 0,-3.59 0,-5.38 0,-0.8 0.25,-1.07 1.05,-1.08 2.83,-0.01 5.66,0 8.5,0 0.31,0 0.49,0.13 0.54,0.43 0.03,0.15 0.06,0.3 0.06,0.45 0.05,1.03 -0.1,1.19 -1.12,1.19 -1.73,0 -3.45,0.01 -5.17,-0.01 -0.3,0 -0.37,0.08 -0.36,0.36 0.02,0.81 0.02,1.62 0,2.43 -0.01,0.32 0.09,0.37 0.39,0.37 1.52,-0.02 3.04,-0.01 4.55,-0.01 0.54,0 0.7,0.16 0.74,0.7 0,0.02 0,0.03 0,0.04 0.07,1.17 -0.04,1.28 -1.18,1.28 -1.38,0 -2.76,0.01 -4.15,0 -0.29,-0.01 -0.36,0.08 -0.35,0.36 0.02,0.97 0.02,1.95 0,2.92 -0.01,0.32 0.1,0.37 0.39,0.37 1.86,-0.02 3.72,-0.01 5.58,-0.01 0.51,0 0.65,0.13 0.71,0.64 0.01,0.04 0.01,0.08 0.01,0.12 0.1,1.14 -0.05,1.31 -1.19,1.31 -2.53,0 -5.06,0 -7.6,0 -0.13,0 -0.27,0 -0.41,-0.01 -0.72,-0.02 -0.99,-0.29 -0.99,-1.01 0,-1.82 0,-3.64 0,-5.46z"/>
   <path class="fil4" d="M74.1 100c-1.37,-0.02 -2.72,-0.19 -4,-0.73 -0.81,-0.33 -1.18,-1.47 -0.75,-2.23 0.2,-0.37 0.51,-0.25 0.79,-0.12 0.68,0.31 1.38,0.58 2.12,0.74 1.06,0.24 2.13,0.31 3.21,0.04 0.34,-0.09 0.67,-0.23 0.94,-0.47 0.62,-0.55 0.6,-1.41 -0.05,-1.92 -0.5,-0.39 -1.09,-0.61 -1.69,-0.81 -0.95,-0.33 -1.92,-0.62 -2.84,-1.06 -0.42,-0.2 -0.82,-0.43 -1.17,-0.74 -1.54,-1.3 -1.52,-3.5 0.02,-4.79 0.86,-0.71 1.89,-1.03 2.97,-1.19 1.63,-0.24 3.24,-0.15 4.82,0.37 0.36,0.11 0.79,0.18 0.92,0.6 0.15,0.53 0.16,1.09 -0.02,1.61 -0.12,0.34 -0.43,0.24 -0.67,0.14 -0.55,-0.22 -1.09,-0.43 -1.66,-0.58 -0.86,-0.21 -1.72,-0.29 -2.6,-0.12 -0.27,0.05 -0.53,0.14 -0.76,0.28 -0.75,0.46 -0.82,1.32 -0.15,1.89 0.47,0.39 1.04,0.6 1.6,0.79 0.98,0.34 1.98,0.63 2.93,1.07 0.38,0.17 0.75,0.37 1.1,0.63 1.62,1.22 1.8,3.37 0.38,4.83 -0.93,0.95 -2.13,1.36 -3.39,1.59 -0.68,0.13 -1.36,0.19 -2.05,0.18z"/>
   <path class="fil4" d="M48.37 92.45c0.83,-1.82 1.93,-3.45 2.91,-5.15 0.15,-0.26 0.33,-0.43 0.63,-0.47 0.91,-0.11 1.83,-0.1 2.74,-0.01 0.47,0.05 0.54,0.23 0.29,0.64 -0.36,0.59 -0.76,1.17 -1.14,1.75 -1.2,1.78 -2.39,3.56 -3.59,5.34 -0.13,0.21 -0.19,0.41 -0.19,0.65 0.01,1.32 -0.01,2.63 0.01,3.94 0.01,0.41 -0.17,0.57 -0.54,0.62 -0.82,0.1 -1.64,0.1 -2.45,0 -0.37,-0.05 -0.55,-0.19 -0.54,-0.6 0.02,-1.31 0,-2.61 0.01,-3.91 0,-0.27 -0.07,-0.49 -0.22,-0.72 -1.51,-2.23 -3,-4.47 -4.49,-6.71 -0.16,-0.24 -0.47,-0.5 -0.32,-0.79 0.15,-0.32 0.55,-0.25 0.85,-0.25 0.73,-0.02 1.45,-0.04 2.18,0.02 0.39,0.04 0.67,0.22 0.88,0.58 0.95,1.62 2,3.19 2.85,4.88 0.03,0.06 0.07,0.11 0.13,0.19z"/>
  </g>
 </g>
</svg>
